<?xml version="1.0" encoding="UTF-8" standalone="no"?>
<!DOCTYPE svg PUBLIC "-//W3C//DTD SVG 1.1//EN" "http://www.w3.org/Graphics/SVG/1.1/DTD/svg11.dtd">
<svg version="1.1" xmlns="http://www.w3.org/2000/svg" xmlns:xlink="http://www.w3.org/1999/xlink" preserveAspectRatio="xMidYMid meet" viewBox="0 0 370 550" width="370" height="550"><defs><path d="M55 425C55 441.57 41.57 455 25 455C25 455 25 455 25 455C25 487.24 25 507.38 25 515.44C25 520.72 29.28 525 34.56 525C96.65 525 275.11 525 337.64 525C341.7 525 345 521.7 345 517.64C345 509.29 345 488.41 345 455C345 455 345 455 345 455C328.43 455 315 441.57 315 425C315 419 315 431 315 425C315 408.43 328.43 395 345 395C345 395 345 395 345 395C345 201.69 345 80.87 345 32.55C345 28.38 341.62 25 337.45 25C274.96 25 95.05 25 32.56 25C28.39 25 25 28.39 25 32.56C25 80.89 25 201.7 25 395C25 395 25 395 25 395C41.57 395 55 408.43 55 425C55 431 55 419 55 425Z" id="kK9F2SwwB"></path><path d="M73.22 425C73.22 425.4 72.9 425.72 72.5 425.72C72.1 425.72 71.78 425.4 71.78 425C71.78 424.6 72.1 424.28 72.5 424.28C72.9 424.28 73.22 424.6 73.22 425Z" id="a1gTjYB5J3"></path><path d="M98.22 425C98.22 425.4 97.9 425.72 97.5 425.72C97.1 425.72 96.78 425.4 96.78 425C96.78 424.6 97.1 424.28 97.5 424.28C97.9 424.28 98.22 424.6 98.22 425Z" id="ajdm5oWP1"></path><path d="M110.72 425C110.72 425.4 110.4 425.72 110 425.72C109.6 425.72 109.28 425.4 109.28 425C109.28 424.6 109.6 424.28 110 424.28C110.4 424.28 110.72 424.6 110.72 425Z" id="a10adLe6u3"></path><path d="M123.22 425C123.22 425.4 122.9 425.72 122.5 425.72C122.1 425.72 121.78 425.4 121.78 425C121.78 424.6 122.1 424.28 122.5 424.28C122.9 424.28 123.22 424.6 123.22 425Z" id="e6DDiD6udo"></path><path d="M135.72 425C135.72 425.4 135.4 425.72 135 425.72C134.6 425.72 134.28 425.4 134.28 425C134.28 424.6 134.6 424.28 135 424.28C135.4 424.28 135.72 424.6 135.72 425Z" id="e29Dvt226Y"></path><path d="M148.22 425C148.22 425.4 147.9 425.72 147.5 425.72C147.1 425.72 146.78 425.4 146.78 425C146.78 424.6 147.1 424.28 147.5 424.28C147.9 424.28 148.22 424.6 148.22 425Z" id="a18jBdPC8r"></path><path d="M173.22 425C173.22 425.4 172.9 425.72 172.5 425.72C172.1 425.72 171.78 425.4 171.78 425C171.78 424.6 172.1 424.28 172.5 424.28C172.9 424.28 173.22 424.6 173.22 425Z" id="ccpFFpSsE"></path><path d="M160.72 425C160.72 425.4 160.4 425.72 160 425.72C159.6 425.72 159.28 425.4 159.28 425C159.28 424.6 159.6 424.28 160 424.28C160.4 424.28 160.72 424.6 160.72 425Z" id="bb7YWQ07xD"></path><path d="M185.72 425C185.72 425.4 185.4 425.72 185 425.72C184.6 425.72 184.28 425.4 184.28 425C184.28 424.6 184.6 424.28 185 424.28C185.4 424.28 185.72 424.6 185.72 425Z" id="cUalZpJCt"></path><path d="M198.22 425C198.22 425.4 197.9 425.72 197.5 425.72C197.1 425.72 196.78 425.4 196.78 425C196.78 424.6 197.1 424.28 197.5 424.28C197.9 424.28 198.22 424.6 198.22 425Z" id="a3rCd7hFz"></path><path d="M210.72 425C210.72 425.4 210.4 425.72 210 425.72C209.6 425.72 209.28 425.4 209.28 425C209.28 424.6 209.6 424.28 210 424.28C210.4 424.28 210.72 424.6 210.72 425Z" id="b5Xnqvnil8"></path><path d="M223.22 425C223.22 425.4 222.9 425.72 222.5 425.72C222.1 425.72 221.78 425.4 221.78 425C221.78 424.6 222.1 424.28 222.5 424.28C222.9 424.28 223.22 424.6 223.22 425Z" id="aaE9wjog2"></path><path d="M235.72 425C235.72 425.4 235.4 425.72 235 425.72C234.6 425.72 234.28 425.4 234.28 425C234.28 424.6 234.6 424.28 235 424.28C235.4 424.28 235.72 424.6 235.72 425Z" id="afY69kjNC"></path><path d="M248.22 425C248.22 425.4 247.9 425.72 247.5 425.72C247.1 425.72 246.78 425.4 246.78 425C246.78 424.6 247.1 424.28 247.5 424.28C247.9 424.28 248.22 424.6 248.22 425Z" id="eV0U2F4FI"></path><path d="M260.72 425C260.72 425.4 260.4 425.72 260 425.72C259.6 425.72 259.28 425.4 259.28 425C259.28 424.6 259.6 424.28 260 424.28C260.4 424.28 260.72 424.6 260.72 425Z" id="d13ESjZ0KY"></path><path d="M273.22 425C273.22 425.4 272.9 425.72 272.5 425.72C272.1 425.72 271.78 425.4 271.78 425C271.78 424.6 272.1 424.28 272.5 424.28C272.9 424.28 273.22 424.6 273.22 425Z" id="a6F98LCUqw"></path><path d="M285.19 425C285.19 425.4 284.87 425.72 284.47 425.72C284.07 425.72 283.75 425.4 283.75 425C283.75 424.6 284.07 424.28 284.47 424.28C284.87 424.28 285.19 424.6 285.19 425Z" id="e2cWJiYa6L"></path><path d="M298.22 425C298.22 425.4 297.9 425.72 297.5 425.72C297.1 425.72 296.78 425.4 296.78 425C296.78 424.6 297.1 424.28 297.5 424.28C297.9 424.28 298.22 424.6 298.22 425Z" id="d7ppMJ2neu"></path><path d="M310.72 425C310.72 425.4 310.4 425.72 310 425.72C309.6 425.72 309.28 425.4 309.28 425C309.28 424.6 309.6 424.28 310 424.28C310.4 424.28 310.72 424.6 310.72 425Z" id="axTYoowTT"></path><path d="M85.72 425C85.72 425.4 85.4 425.72 85 425.72C84.6 425.72 84.28 425.4 84.28 425C84.28 424.6 84.6 424.28 85 424.28C85.4 424.28 85.72 424.6 85.72 425Z" id="bOJaYTGUv"></path><path d="M60.72 425C60.72 425.4 60.4 425.72 60 425.72C59.6 425.72 59.28 425.4 59.28 425C59.28 424.6 59.6 424.28 60 424.28C60.4 424.28 60.72 424.6 60.72 425Z" id="a1DIhw9uxv"></path></defs><g><g><g><g><filter id="shadow11064416" x="-12" y="-12" width="395" height="575" filterUnits="userSpaceOnUse" primitiveUnits="userSpaceOnUse"><feFlood></feFlood><feComposite in2="SourceAlpha" operator="in"></feComposite><feGaussianBlur stdDeviation="3.87"></feGaussianBlur><feOffset dx="1" dy="1" result="afterOffset"></feOffset><feFlood flood-color="#000000" flood-opacity="0.5"></feFlood><feComposite in2="afterOffset" operator="in"></feComposite><feMorphology operator="dilate" radius="1"></feMorphology><feComposite in2="SourceAlpha" operator="out"></feComposite></filter><path d="M55 425C55 441.57 41.57 455 25 455C25 455 25 455 25 455C25 487.24 25 507.38 25 515.44C25 520.72 29.28 525 34.56 525C96.65 525 275.11 525 337.64 525C341.7 525 345 521.7 345 517.64C345 509.29 345 488.41 345 455C345 455 345 455 345 455C328.43 455 315 441.57 315 425C315 419 315 431 315 425C315 408.43 328.43 395 345 395C345 395 345 395 345 395C345 201.69 345 80.87 345 32.55C345 28.38 341.62 25 337.45 25C274.96 25 95.05 25 32.56 25C28.39 25 25 28.39 25 32.56C25 80.89 25 201.7 25 395C25 395 25 395 25 395C41.57 395 55 408.43 55 425C55 431 55 419 55 425Z" id="bX7T2fBe6" fill="white" fill-opacity="1" filter="url(#shadow11064416)"></path></g><use xlink:href="#kK9F2SwwB" opacity="1" fill="#ffffff" fill-opacity="1"></use><g><use xlink:href="#kK9F2SwwB" opacity="1" fill-opacity="0" stroke="#000000" stroke-width="0" stroke-opacity="1"></use></g></g><g><g><use xlink:href="#a1gTjYB5J3" opacity="1" fill="#363636" fill-opacity="1"></use></g><g><use xlink:href="#ajdm5oWP1" opacity="1" fill="#363636" fill-opacity="1"></use></g><g><use xlink:href="#a10adLe6u3" opacity="1" fill="#363636" fill-opacity="1"></use></g><g><use xlink:href="#e6DDiD6udo" opacity="1" fill="#363636" fill-opacity="1"></use></g><g><use xlink:href="#e29Dvt226Y" opacity="1" fill="#363636" fill-opacity="1"></use></g><g><use xlink:href="#a18jBdPC8r" opacity="1" fill="#363636" fill-opacity="1"></use></g><g><use xlink:href="#ccpFFpSsE" opacity="1" fill="#363636" fill-opacity="1"></use></g><g><use xlink:href="#bb7YWQ07xD" opacity="1" fill="#363636" fill-opacity="1"></use></g><g><use xlink:href="#cUalZpJCt" opacity="1" fill="#363636" fill-opacity="1"></use></g><g><use xlink:href="#a3rCd7hFz" opacity="1" fill="#363636" fill-opacity="1"></use></g><g><use xlink:href="#b5Xnqvnil8" opacity="1" fill="#363636" fill-opacity="1"></use></g><g><use xlink:href="#aaE9wjog2" opacity="1" fill="#363636" fill-opacity="1"></use></g><g><use xlink:href="#afY69kjNC" opacity="1" fill="#363636" fill-opacity="1"></use></g><g><use xlink:href="#eV0U2F4FI" opacity="1" fill="#363636" fill-opacity="1"></use></g><g><use xlink:href="#d13ESjZ0KY" opacity="1" fill="#363636" fill-opacity="1"></use></g><g><use xlink:href="#a6F98LCUqw" opacity="1" fill="#363636" fill-opacity="1"></use></g><g><use xlink:href="#e2cWJiYa6L" opacity="1" fill="#363636" fill-opacity="1"></use></g><g><use xlink:href="#d7ppMJ2neu" opacity="1" fill="#363636" fill-opacity="1"></use></g><g><use xlink:href="#axTYoowTT" opacity="1" fill="#363636" fill-opacity="1"></use></g><g><use xlink:href="#bOJaYTGUv" opacity="1" fill="#363636" fill-opacity="1"></use></g><g><use xlink:href="#a1DIhw9uxv" opacity="1" fill="#363636" fill-opacity="1"></use></g></g></g></g></svg>